<?xml version="1.0" encoding="UTF-8"?>
<!DOCTYPE svg PUBLIC "-//W3C//DTD SVG 1.1//EN" "http://www.w3.org/Graphics/SVG/1.1/DTD/svg11.dtd">
<svg xmlns="http://www.w3.org/2000/svg" version="1.1" width="819px" height="819px" style="shape-rendering:geometricPrecision; text-rendering:geometricPrecision; image-rendering:optimizeQuality; fill-rule:evenodd; clip-rule:evenodd" xmlns:xlink="http://www.w3.org/1999/xlink">
<g><path style="opacity:0.993" fill="#fefcfa" d="M 97.5,-0.5 C 305.833,-0.5 514.167,-0.5 722.5,-0.5C 744.683,9.52792 764.516,23.1946 782,40.5C 799.694,60.2221 811.86,82.8887 818.5,108.5C 818.5,304.833 818.5,501.167 818.5,697.5C 796.402,771.253 746.735,810.086 669.5,814C 495.5,814.667 321.5,814.667 147.5,814C 69.1249,809.036 19.7915,768.87 -0.5,693.5C -0.5,500.5 -0.5,307.5 -0.5,114.5C 11.6132,59.8745 43.7798,22.2078 96,1.5C 97.0299,1.16389 97.5299,0.497222 97.5,-0.5 Z"/></g>
<g><path style="opacity:1" fill="#fca42f" d="M 785.5,112.5 C 784.876,112.917 784.543,113.584 784.5,114.5C 785.441,119.146 786.274,123.813 787,128.5C 787.167,310.667 787.667,492.667 788.5,674.5C 784.437,715.819 764.437,746.652 728.5,767C 714.956,773.904 700.623,778.071 685.5,779.5C 646.337,778.501 607.004,778.168 567.5,778.5C 567.847,775.659 567.513,773.659 566.5,772.5C 559.764,727.806 558.264,682.806 562,637.5C 567.302,600.238 582.302,567.571 607,539.5C 629.592,516.921 649.926,492.587 668,466.5C 697.658,417.903 703.658,366.569 686,312.5C 662.112,259.129 620.945,230.295 562.5,226C 537.368,203.268 508.035,188.768 474.5,182.5C 473.359,180.579 473.192,178.579 474,176.5C 479.394,147.801 484.894,119.134 490.5,90.5C 471.222,86.2866 451.889,82.2866 432.5,78.5C 426.397,109.515 420.23,140.515 414,171.5C 401.206,168.774 388.372,166.108 375.5,163.5C 375.167,162.667 374.833,161.833 374.5,161C 380.106,130.804 385.773,100.638 391.5,70.5C 371.441,67.9213 351.608,64.2546 332,59.5C 325.526,90.7252 319.693,122.059 314.5,153.5C 278.517,146.703 242.517,140.037 206.5,133.5C 203.049,153.539 199.382,173.539 195.5,193.5C 208.472,196.061 221.472,198.561 234.5,201C 244.039,202.505 251.205,207.339 256,215.5C 257.237,219.06 257.737,222.727 257.5,226.5C 196.723,229.785 154.557,259.451 131,315.5C 114.396,367.669 120.062,417.336 148,464.5C 161.369,485.551 177.369,504.551 196,521.5C 195.989,531.188 191.156,537.022 181.5,539C 176.5,539.667 171.5,539.667 166.5,539C 159.206,537.507 151.873,536.341 144.5,535.5C 140.5,553.835 136.5,572.168 132.5,590.5C 165.326,596.065 197.993,602.399 230.5,609.5C 225.373,635.133 220.373,660.8 215.5,686.5C 215.818,687.647 216.484,688.481 217.5,689C 230.525,691.438 243.525,693.938 256.5,696.5C 255.541,721.82 252.874,746.82 248.5,771.5C 247.717,773.343 247.05,775.343 246.5,777.5C 208.002,778.167 169.669,778.833 131.5,779.5C 88.1287,773.745 57.2954,751.078 39,711.5C 36.1237,704.705 33.9571,697.705 32.5,690.5C 33.1239,690.083 33.4573,689.416 33.5,688.5C 32.8607,685.525 32.3607,682.525 32,679.5C 31.8332,495.333 31.3332,311.333 30.5,127.5C 37.4951,81.0115 62.8284,49.1781 106.5,32C 114.055,29.8222 121.722,28.1556 129.5,27C 316.167,26.3333 502.833,26.3333 689.5,27C 730.983,33.4818 760.816,55.6485 779,93.5C 781.47,99.7449 783.637,106.078 785.5,112.5 Z"/></g>
<g><path style="opacity:1" fill="#fc991d" d="M 30.5,127.5 C 31.3332,311.333 31.8332,495.333 32,679.5C 32.3607,682.525 32.8607,685.525 33.5,688.5C 33.4573,689.416 33.1239,690.083 32.5,690.5C 31.2073,684.579 30.374,678.579 30,672.5C 29.1741,490.819 29.3408,309.152 30.5,127.5 Z"/></g>
<g><path style="opacity:1" fill="#fe9d36" d="M 785.5,112.5 C 787.243,119.386 788.41,126.386 789,133.5C 789.831,313.873 789.664,494.206 788.5,674.5C 787.667,492.667 787.167,310.667 787,128.5C 786.274,123.813 785.441,119.146 784.5,114.5C 784.543,113.584 784.876,112.917 785.5,112.5 Z"/></g>
<g><path style="opacity:1" fill="#393142" d="M 677.5,397.5 C 674.199,411.406 669.866,425.073 664.5,438.5C 658.198,452.44 650.364,465.44 641,477.5C 625,495.5 609,513.5 593,531.5C 560.286,569.959 543.952,614.625 544,665.5C 543.792,703.629 545.959,741.629 550.5,779.5C 536.167,779.5 521.833,779.5 507.5,779.5C 507.5,778.167 507.5,776.833 507.5,775.5C 506.433,752.812 505.099,730.145 503.5,707.5C 485.265,719.611 465.265,727.278 443.5,730.5C 418.816,733.333 394.149,733.166 369.5,730C 348.209,726.599 329.042,718.432 312,705.5C 309.778,728.98 307.612,752.313 305.5,775.5C 305.657,774.127 305.49,772.793 305,771.5C 304.503,773.81 304.337,776.143 304.5,778.5C 290.92,779.12 277.587,778.453 264.5,776.5C 268.138,750.794 270.805,725.127 272.5,699.5C 272.336,702.187 272.503,704.854 273,707.5C 272.965,698.93 274.299,690.597 277,682.5C 278.333,683.167 279.667,683.833 281,684.5C 281.167,684.167 281.333,683.833 281.5,683.5C 280.448,681.57 279.114,680.07 277.5,679C 279.405,678.174 279.739,677.007 278.5,675.5C 276.461,676.277 275.795,677.443 276.5,679C 275.726,681.405 275.226,683.905 275,686.5C 274.841,668.131 274.008,649.798 272.5,631.5C 273.138,628.497 273.305,625.497 273,622.5C 272.333,627.833 271.667,627.833 271,622.5C 270.536,623.094 270.369,623.761 270.5,624.5C 264.782,591.062 250.948,561.396 229,535.5C 213.667,518.833 198.333,502.167 183,485.5C 157.717,456.924 142.717,423.591 138,385.5C 133.277,329.569 154.444,286.736 201.5,257C 223.726,245.021 247.393,240.355 272.5,243C 290.373,226.808 311.373,217.141 335.5,214C 383.5,213.333 431.5,213.333 479.5,214C 505.12,216.316 527.454,225.982 546.5,243C 597.246,239.955 636.08,259.788 663,302.5C 679.54,332.517 684.374,364.184 677.5,397.5 Z"/></g>
<g><path style="opacity:1" fill="#f9f8f7" d="M 570.5,272.5 C 582.093,272.63 593.093,275.797 603.5,282C 631.268,298.704 646.435,323.204 649,355.5C 637.285,321.785 614.119,300.618 579.5,292C 577.808,287.926 576.308,283.76 575,279.5C 573.974,276.761 572.474,274.428 570.5,272.5 Z"/></g>
<g><path style="opacity:1" fill="#faf8f7" d="M 241.5,271.5 C 243.857,271.337 246.19,271.503 248.5,272C 244.959,277.79 242.292,283.957 240.5,290.5C 204.475,300.358 180.642,323.025 169,358.5C 173.002,312.667 197.169,283.667 241.5,271.5 Z"/></g>
<g><path style="opacity:1" fill="#fdfcf9" d="M 344.5,239.5 C 387.835,239.333 431.168,239.5 474.5,240C 505.103,241.655 529.27,254.822 547,279.5C 549.419,282.93 549.919,286.596 548.5,290.5C 525.732,300.767 505.899,315.101 489,333.5C 477.341,349.637 464.174,364.47 449.5,378C 450.716,379.74 452.382,380.74 454.5,381C 459.788,381.788 464.954,381.288 470,379.5C 485.718,387.289 501.551,387.455 517.5,380C 526.318,374.883 532.152,367.383 535,357.5C 536.464,348.88 536.798,340.213 536,331.5C 535.127,328.382 533.961,325.382 532.5,322.5C 539.211,316.81 546.878,313.31 555.5,312C 571.847,332.733 575.68,355.566 567,380.5C 562.365,389.275 556.199,396.775 548.5,403C 537.889,409.945 527.556,417.278 517.5,425C 505.854,437.642 495.354,451.142 486,465.5C 476.124,478.688 462.957,485.355 446.5,485.5C 433.716,483.51 420.883,481.844 408,480.5C 395.713,482.423 383.38,484.09 371,485.5C 357.077,485.037 345.41,479.704 336,469.5C 328.278,459.444 320.945,449.111 314,438.5C 309.533,433.032 304.7,427.865 299.5,423C 288.5,415.333 277.5,407.667 266.5,400C 247.366,380.734 242.533,358.234 252,332.5C 255.159,325.512 258.826,318.846 263,312.5C 263.725,311.941 264.558,311.608 265.5,311.5C 273.223,314.195 280.557,317.695 287.5,322C 282.759,331.609 281.259,341.776 283,352.5C 286.455,370.622 297.288,381.455 315.5,385C 327.538,386.946 338.872,385.113 349.5,379.5C 356.025,382.143 362.525,382.143 369,379.5C 369.667,378.5 369.667,377.5 369,376.5C 355.218,363.057 342.551,348.724 331,333.5C 313.809,314.307 293.309,299.807 269.5,290C 268.17,286.632 268.67,283.465 271,280.5C 288.67,254.745 313.17,241.078 344.5,239.5 Z"/></g>
<g><path style="opacity:1" fill="#f9f8f7" d="M 507.5,339.5 C 508.652,344.985 508.818,350.651 508,356.5C 505.514,362.156 501.348,365.823 495.5,367.5C 491.296,366.805 489.129,364.471 489,360.5C 495.404,353.603 501.571,346.603 507.5,339.5 Z"/></g>
<g><path style="opacity:1" fill="#f9f7f7" d="M 310.5,339.5 C 318.367,346.2 325.367,353.7 331.5,362C 329.211,366.644 325.544,368.311 320.5,367C 316.281,364.448 313.114,360.948 311,356.5C 310.501,350.843 310.334,345.176 310.5,339.5 Z"/></g>
<g><path style="opacity:1" fill="#17141e" d="M 677.5,397.5 C 675.75,412.079 671.417,425.746 664.5,438.5C 669.866,425.073 674.199,411.406 677.5,397.5 Z"/></g>
<g><path style="opacity:1" fill="#352e3e" d="M 447.5,417.5 C 454.199,417.035 457.532,420.202 457.5,427C 454.615,440.556 446.282,447.556 432.5,448C 430.993,446.527 430.326,444.693 430.5,442.5C 431.903,431.124 437.57,422.791 447.5,417.5 Z"/></g>
<g><path style="opacity:1" fill="#362f3f" d="M 365.5,417.5 C 377.224,419.716 384.724,426.716 388,438.5C 390.028,446.342 387.195,449.509 379.5,448C 373.353,445.508 368.186,441.674 364,436.5C 360.279,429.727 360.779,423.393 365.5,417.5 Z"/></g>
<g><path style="opacity:1" fill="#fcfaf9" d="M 283.5,454.5 C 289.176,460.013 294.342,466.013 299,472.5C 306.418,484.338 314.085,496.004 322,507.5C 337.804,525.318 357.638,534.985 381.5,536.5C 380.712,544.809 380.379,553.142 380.5,561.5C 350.407,559.034 324.907,547.034 304,525.5C 299.184,501.233 292.35,477.566 283.5,454.5 Z"/></g>
<g><path style="opacity:1" fill="#faf9f8" d="M 399.5,511.5 C 406.167,511.5 412.833,511.5 419.5,511.5C 417.016,551.351 421.516,590.351 433,628.5C 436.963,639.926 442.13,650.759 448.5,661C 427.887,649.002 414.72,631.168 409,607.5C 403.025,631.392 389.525,649.225 368.5,661C 374.764,652.64 379.598,643.473 383,633.5C 391.2,610.167 396.2,586.167 398,561.5C 398.932,544.845 399.432,528.178 399.5,511.5 Z"/></g>
<g><path style="opacity:1" fill="#9d9295" d="M 533.5,454.5 C 534.239,454.369 534.906,454.536 535.5,455C 531.216,463.849 527.716,473.015 525,482.5C 521.197,496.714 517.863,511.048 515,525.5C 494.106,547.028 468.606,559.028 438.5,561.5C 437.589,552.874 437.255,544.208 437.5,535.5C 463.433,534.953 483.933,524.286 499,503.5C 509.967,486.715 521.467,470.382 533.5,454.5 Z"/></g>
<g><path style="opacity:1" fill="#fdfbf9" d="M 306.5,550.5 C 327.908,566.364 351.908,575.864 378.5,579C 375.814,597.91 371.314,616.41 365,634.5C 344.84,630.254 327.173,621.254 312,607.5C 310.855,588.408 309.022,569.408 306.5,550.5 Z"/></g>
<g><path style="opacity:1" fill="#9d9194" d="M 510.5,550.5 C 509.896,569.679 508.396,589.013 506,608.5C 497.916,616.796 488.416,622.962 477.5,627C 469.843,630.039 462.01,632.539 454,634.5C 453.5,634.167 453,633.833 452.5,633.5C 445.817,615.765 441.817,597.432 440.5,578.5C 462.663,575.613 483.329,568.446 502.5,557C 505.42,555.054 508.087,552.887 510.5,550.5 Z"/></g>
<g><path style="opacity:1" fill="#fdfbf9" d="M 444.5,679.5 C 444.078,690.857 443.411,702.19 442.5,713.5C 413.96,717.092 385.627,715.925 357.5,710C 342.385,705.776 328.718,698.943 316.5,689.5C 315.542,688.038 314.376,686.705 313,685.5C 312.5,668.503 312.333,651.503 312.5,634.5C 312.338,632.473 312.505,630.473 313,628.5C 326.854,639.343 342.354,646.843 359.5,651C 353.643,662.547 347.643,674.047 341.5,685.5C 354.395,686.777 366.395,683.944 377.5,677C 389.158,670.016 399.658,661.516 409,651.5C 419.272,662.953 431.106,672.286 444.5,679.5 Z"/></g>
<g><path style="opacity:1" fill="#06030d" d="M 312.5,634.5 C 312.333,651.503 312.5,668.503 313,685.5C 314.376,686.705 315.542,688.038 316.5,689.5C 314.629,689.141 313.129,688.141 312,686.5C 311.171,668.995 311.338,651.662 312.5,634.5 Z"/></g>
<g><path style="opacity:1" fill="#302b39" d="M 272.5,699.5 C 273.026,674.446 272.36,649.446 270.5,624.5C 270.369,623.761 270.536,623.094 271,622.5C 271.667,627.833 272.333,627.833 273,622.5C 273.305,625.497 273.138,628.497 272.5,631.5C 274.008,649.798 274.841,668.131 275,686.5C 275.226,683.905 275.726,681.405 276.5,679C 275.795,677.443 276.461,676.277 278.5,675.5C 279.739,677.007 279.405,678.174 277.5,679C 279.114,680.07 280.448,681.57 281.5,683.5C 281.333,683.833 281.167,684.167 281,684.5C 279.667,683.833 278.333,683.167 277,682.5C 274.299,690.597 272.965,698.93 273,707.5C 272.503,704.854 272.336,702.187 272.5,699.5 Z"/></g>
<g><path style="opacity:1" fill="#9d9195" d="M 442.5,713.5 C 443.411,702.19 444.078,690.857 444.5,679.5C 454.467,684.995 465.134,687.162 476.5,686C 470.102,674.705 464.102,663.205 458.5,651.5C 469.851,647.882 480.851,643.382 491.5,638C 496.263,635.202 500.763,632.036 505,628.5C 504.692,647.755 504.359,667.088 504,686.5C 486.23,701.633 465.73,710.633 442.5,713.5 Z"/></g>
<g><path style="opacity:1" fill="#9c9093" d="M 507.5,775.5 C 506.566,776.568 506.232,777.901 506.5,779.5C 484.833,779.5 463.167,779.5 441.5,779.5C 441.5,777.5 441.5,775.5 441.5,773.5C 441.598,759.111 442.265,744.778 443.5,730.5C 465.265,727.278 485.265,719.611 503.5,707.5C 505.099,730.145 506.433,752.812 507.5,775.5 Z"/></g>
<g><path style="opacity:1" fill="#fb8703" d="M 248.5,771.5 C 248.5,774.167 248.5,776.833 248.5,779.5C 209.5,779.5 170.5,779.5 131.5,779.5C 169.669,778.833 208.002,778.167 246.5,777.5C 247.05,775.343 247.717,773.343 248.5,771.5 Z"/></g>
<g><path style="opacity:1" fill="#05010e" d="M 305.5,775.5 C 305.5,776.833 305.5,778.167 305.5,779.5C 291.833,779.5 278.167,779.5 264.5,779.5C 264.5,778.5 264.5,777.5 264.5,776.5C 277.587,778.453 290.92,779.12 304.5,778.5C 304.337,776.143 304.503,773.81 305,771.5C 305.49,772.793 305.657,774.127 305.5,775.5 Z"/></g>
<g><path style="opacity:1" fill="#fa8601" d="M 685.5,779.5 C 645.833,779.5 606.167,779.5 566.5,779.5C 566.5,777.167 566.5,774.833 566.5,772.5C 567.513,773.659 567.847,775.659 567.5,778.5C 607.004,778.168 646.337,778.501 685.5,779.5 Z"/></g>
<g><path style="opacity:1" fill="#b4acb0" d="M 441.5,773.5 C 441.5,775.5 441.5,777.5 441.5,779.5C 463.167,779.5 484.833,779.5 506.5,779.5C 506.232,777.901 506.566,776.568 507.5,775.5C 507.5,776.833 507.5,778.167 507.5,779.5C 521.833,779.5 536.167,779.5 550.5,779.5C 514.004,780.498 477.337,780.832 440.5,780.5C 440.198,777.941 440.532,775.607 441.5,773.5 Z"/></g>
</svg>
