<?xml version="1.0" encoding="UTF-8"?>
<!DOCTYPE svg PUBLIC "-//W3C//DTD SVG 1.1//EN" "http://www.w3.org/Graphics/SVG/1.1/DTD/svg11.dtd">
<svg xmlns="http://www.w3.org/2000/svg" version="1.1" width="1024px" height="1024px" style="shape-rendering:geometricPrecision; text-rendering:geometricPrecision; image-rendering:optimizeQuality; fill-rule:evenodd; clip-rule:evenodd" xmlns:xlink="http://www.w3.org/1999/xlink">
<g><path style="opacity:0.98" fill="#fefcfa" d="M 246.5,94.5 C 430.176,94.0251 613.843,94.5251 797.5,96C 852.557,107.093 891.39,138.26 914,189.5C 917.853,201.284 920.853,213.284 923,225.5C 924.095,316.328 924.595,407.162 924.5,498C 924.581,592.171 924.081,686.338 923,780.5C 913.016,848.438 875.516,891.938 810.5,911C 803.167,912.333 795.833,913.667 788.5,915C 610.654,915.17 433.154,915.67 256,916.5C 205.417,916.365 163.75,897.365 131,859.5C 112.867,834.533 102.534,806.533 100,775.5C 99.8313,713.263 99.3313,651.096 98.5,589C 99.3281,470.179 99.8281,351.013 100,231.5C 110.083,159.088 150.583,114.255 221.5,97C 229.97,96.0436 238.303,95.2103 246.5,94.5 Z"/></g>
<g><path style="opacity:1" fill="#fa8500" d="M 235.5,128.5 C 422.188,128.172 608.855,128.505 795.5,129.5C 794.207,130.158 792.707,130.492 791,130.5C 605.676,129.839 420.509,129.172 235.5,128.5 Z"/></g>
<g><path style="opacity:1" fill="#fca42f" d="M 235.5,128.5 C 420.509,129.172 605.676,129.839 791,130.5C 792.707,130.492 794.207,130.158 795.5,129.5C 841.962,139.458 872.462,167.125 887,212.5C 888.705,218.4 889.872,224.4 890.5,230.5C 889.167,413.167 889.167,595.833 890.5,778.5C 883.651,829.03 855.985,862.197 807.5,878C 800.914,879.679 794.248,880.845 787.5,881.5C 748.337,880.501 709.004,880.168 669.5,880.5C 669.847,877.659 669.513,875.659 668.5,874.5C 662.374,833.16 660.541,791.493 663,749.5C 666.31,708.232 681.643,672.232 709,641.5C 731.592,618.921 751.926,594.587 770,568.5C 799.549,519.894 805.549,468.56 788,414.5C 764.111,361.128 722.944,332.295 664.5,328C 639.368,305.268 610.035,290.768 576.5,284.5C 575.359,282.579 575.192,280.579 576,278.5C 581.362,249.794 586.862,221.127 592.5,192.5C 572.909,188.179 553.242,184.179 533.5,180.5C 528.376,211.623 522.542,242.623 516,273.5C 503.615,270.614 491.115,268.114 478.5,266C 477.376,265.161 476.709,263.994 476.5,262.5C 482.217,232.971 487.883,203.471 493.5,174C 473.68,169.969 453.847,165.802 434,161.5C 427.532,192.706 421.699,224.039 416.5,255.5C 380.52,248.704 344.52,242.037 308.5,235.5C 305.158,255.221 301.491,274.888 297.5,294.5C 311.664,298.234 325.997,301.4 340.5,304C 353.468,307.13 359.801,315.296 359.5,328.5C 301.152,331.704 259.652,359.704 235,412.5C 231.831,420.841 228.998,429.175 226.5,437.5C 225.239,440.258 224.406,443.258 224,446.5C 221.905,460.6 221.572,474.6 223,488.5C 223.49,487.207 223.657,485.873 223.5,484.5C 227.188,523.728 241.354,558.728 266,589.5C 275.934,601.437 286.601,612.77 298,623.5C 297.989,633.188 293.156,639.022 283.5,641C 278.167,641.667 272.833,641.667 267.5,641C 260.563,639.379 253.563,638.212 246.5,637.5C 242.501,655.827 238.501,674.161 234.5,692.5C 267.326,698.065 299.993,704.399 332.5,711.5C 327.114,737.761 322.114,764.095 317.5,790.5C 331.19,793.059 344.856,795.726 358.5,798.5C 357.288,826.571 354.288,854.404 349.5,882C 311.833,882.667 274.167,882.667 236.5,882C 189.598,876.412 157.098,851.912 139,808.5C 136.693,801.606 134.86,794.606 133.5,787.5C 134.147,786.726 134.48,785.726 134.5,784.5C 133.837,599.347 133.17,414.347 132.5,229.5C 140.341,178.492 169.008,145.659 218.5,131C 224.156,130.025 229.823,129.192 235.5,128.5 Z"/></g>
<g><path style="opacity:1" fill="#1e1b27" d="M 606.5,321.5 C 619.32,324.907 630.653,330.907 640.5,339.5C 629.698,332.433 618.364,326.433 606.5,321.5 Z"/></g>
<g><path style="opacity:1" fill="#fb8f0d" d="M 226.5,437.5 C 223.956,453.054 222.956,468.72 223.5,484.5C 223.657,485.873 223.49,487.207 223,488.5C 221.572,474.6 221.905,460.6 224,446.5C 224.406,443.258 225.239,440.258 226.5,437.5 Z"/></g>
<g><path style="opacity:1" fill="#231e2c" d="M 782.5,468.5 C 782.671,489.469 779.171,509.802 772,529.5C 771.392,531.066 770.558,532.4 769.5,533.5C 773.508,522.805 776.508,511.805 778.5,500.5C 778.308,498.423 777.808,496.423 777,494.5C 776.189,495.96 775.355,496.293 774.5,495.5C 775.588,492.766 777.422,490.766 780,489.5C 780.254,482.285 781.087,475.285 782.5,468.5 Z"/></g>
<g><path style="opacity:1" fill="#fe9d36" d="M 890.5,230.5 C 891.831,413.177 891.831,595.844 890.5,778.5C 889.167,595.833 889.167,413.167 890.5,230.5 Z"/></g>
<g><path style="opacity:1" fill="#fc991c" d="M 132.5,229.5 C 133.17,414.347 133.837,599.347 134.5,784.5C 134.48,785.726 134.147,786.726 133.5,787.5C 133.083,783.165 132.583,778.832 132,774.5C 131.172,592.812 131.338,411.146 132.5,229.5 Z"/></g>
<g><path style="opacity:1" fill="#383142" d="M 606.5,321.5 C 618.364,326.433 629.698,332.433 640.5,339.5C 643.618,342.106 647.118,344.106 651,345.5C 695.303,342.489 730.97,358.489 758,393.5C 773.666,415.999 781.833,440.999 782.5,468.5C 781.087,475.285 780.254,482.285 780,489.5C 777.422,490.766 775.588,492.766 774.5,495.5C 775.355,496.293 776.189,495.96 777,494.5C 777.808,496.423 778.308,498.423 778.5,500.5C 776.508,511.805 773.508,522.805 769.5,533.5C 764.491,547.186 757.658,559.853 749,571.5C 731.746,592.758 713.746,613.425 695,633.5C 662.073,672.264 645.74,717.264 646,768.5C 645.843,806.296 648.01,843.963 652.5,881.5C 638.167,881.5 623.833,881.5 609.5,881.5C 609.5,879.833 609.5,878.167 609.5,876.5C 608.736,854.128 607.403,831.795 605.5,809.5C 587.296,821.592 567.296,829.259 545.5,832.5C 538.181,833.277 530.847,833.943 523.5,834.5C 508.467,833.822 493.3,832.822 478,831.5C 476.615,831.514 475.449,831.848 474.5,832.5C 452.039,829.513 431.872,821.18 414,807.5C 411.697,831.304 409.53,854.971 407.5,878.5C 407.66,876.801 407.494,875.134 407,873.5C 406.503,875.81 406.337,878.143 406.5,880.5C 392.92,881.12 379.587,880.453 366.5,878.5C 373.67,832.1 376.17,785.434 374,738.5C 370.679,706.193 359.679,676.859 341,650.5C 334.045,641.21 326.712,632.21 319,623.5C 297.366,602.881 278.366,580.215 262,555.5C 237.924,513.151 233.257,468.818 248,422.5C 272.652,368.198 314.819,342.365 374.5,345C 392.287,328.61 413.287,318.943 437.5,316C 485.5,315.333 533.5,315.333 581.5,316C 590.198,316.776 598.531,318.61 606.5,321.5 Z"/></g>
<g><path style="opacity:1" fill="#211e28" d="M 483.5,638.5 C 484.165,641.314 484.498,644.314 484.5,647.5C 484.571,653.068 483.904,658.401 482.5,663.5C 482.379,655.142 482.712,646.809 483.5,638.5 Z"/></g>
<g><path style="opacity:1" fill="#fbf9f7" d="M 501.5,613.5 C 508.167,613.5 514.833,613.5 521.5,613.5C 519.022,653.341 523.522,692.341 535,730.5C 538.963,741.926 544.13,752.759 550.5,763C 529.887,751.002 516.72,733.168 511,709.5C 505.025,733.392 491.525,751.225 470.5,763C 481.836,745.011 489.669,725.511 494,704.5C 499.857,674.456 502.357,644.123 501.5,613.5 Z"/></g>
<g><path style="opacity:1" fill="#9d9295" d="M 635.5,556.5 C 636.239,556.369 636.906,556.536 637.5,557C 635.618,559.978 634.118,563.145 633,566.5C 626.566,586.572 621.232,606.905 617,627.5C 596.1,649.031 570.6,661.031 540.5,663.5C 539.589,654.874 539.255,646.208 539.5,637.5C 565.422,636.958 585.922,626.291 601,605.5C 611.967,588.715 623.467,572.382 635.5,556.5 Z"/></g>
<g><path style="opacity:1" fill="#fcfaf8" d="M 483.5,638.5 C 482.712,646.809 482.379,655.142 482.5,663.5C 452.407,661.034 426.907,649.034 406,627.5C 401.023,603.244 394.356,579.577 386,556.5C 391.377,562.208 396.377,568.208 401,574.5C 408.418,586.338 416.085,598.004 424,609.5C 439.804,627.318 459.638,636.985 483.5,638.5 Z"/></g>
<g><path style="opacity:1" fill="#f9f8f7" d="M 672.5,374.5 C 684.093,374.63 695.093,377.797 705.5,384C 733.268,400.704 748.435,425.204 751,457.5C 739.193,423.86 716.026,402.527 681.5,393.5C 679.708,389.626 678.208,385.626 677,381.5C 675.974,378.761 674.474,376.428 672.5,374.5 Z"/></g>
<g><path style="opacity:1" fill="#faf8f7" d="M 343.5,373.5 C 345.857,373.337 348.19,373.503 350.5,374C 346.959,379.79 344.292,385.957 342.5,392.5C 306.475,402.358 282.642,425.025 271,460.5C 275.002,414.667 299.169,385.667 343.5,373.5 Z"/></g>
<g><path style="opacity:1" fill="#fdfcf9" d="M 446.5,341.5 C 489.835,341.333 533.168,341.5 576.5,342C 607.825,344.041 632.325,357.874 650,383.5C 651.632,386.423 651.799,389.423 650.5,392.5C 627.732,402.767 607.899,417.101 591,435.5C 579.341,451.637 566.174,466.47 551.5,480C 552.716,481.74 554.382,482.74 556.5,483C 561.788,483.788 566.954,483.288 572,481.5C 589.07,489.83 605.903,489.33 622.5,480C 631.088,473.67 636.255,465.17 638,454.5C 638.667,447.5 638.667,440.5 638,433.5C 637.127,430.382 635.961,427.382 634.5,424.5C 641.211,418.81 648.878,415.31 657.5,414C 673.85,434.746 677.683,457.579 669,482.5C 664.365,491.275 658.199,498.775 650.5,505C 639.889,511.945 629.556,519.278 619.5,527C 607.854,539.642 597.354,553.142 588,567.5C 578.124,580.688 564.957,587.355 548.5,587.5C 535.716,585.51 522.883,583.844 510,582.5C 497.869,584.359 485.703,586.026 473.5,587.5C 459.374,587.186 447.541,581.853 438,571.5C 430.278,561.444 422.945,551.111 416,540.5C 411.533,535.032 406.7,529.865 401.5,525C 390.833,517.667 380.167,510.333 369.5,503C 349.304,483.705 344.137,460.871 354,434.5C 357.159,427.512 360.826,420.846 365,414.5C 365.725,413.941 366.558,413.608 367.5,413.5C 375.223,416.195 382.557,419.695 389.5,424C 384.759,433.609 383.259,443.776 385,454.5C 388.455,472.622 399.288,483.455 417.5,487C 429.538,488.946 440.872,487.113 451.5,481.5C 458.025,484.143 464.525,484.143 471,481.5C 471.667,480.5 471.667,479.5 471,478.5C 459.18,468.022 448.847,456.355 440,443.5C 421.637,420.963 399.137,403.963 372.5,392.5C 371.177,389.087 371.344,385.753 373,382.5C 390.67,356.745 415.17,343.078 446.5,341.5 Z"/></g>
<g><path style="opacity:1" fill="#362f3f" d="M 467.5,519.5 C 481.163,522.34 488.83,530.84 490.5,545C 489.692,550.205 486.692,551.872 481.5,550C 471.447,546.294 465.447,539.294 463.5,529C 463.339,525.16 464.672,521.994 467.5,519.5 Z"/></g>
<g><path style="opacity:1" fill="#362f3f" d="M 549.5,519.5 C 554.385,518.856 557.552,520.856 559,525.5C 559.058,538.138 552.891,546.304 540.5,550C 535.18,551.832 532.513,549.999 532.5,544.5C 533.903,533.124 539.57,524.791 549.5,519.5 Z"/></g>
<g><path style="opacity:1" fill="#f9f8f7" d="M 609.5,441.5 C 610.652,446.985 610.818,452.651 610,458.5C 607.886,462.948 604.719,466.448 600.5,469C 596.084,469.959 592.75,468.459 590.5,464.5C 596.509,456.498 602.842,448.831 609.5,441.5 Z"/></g>
<g><path style="opacity:1" fill="#f9f7f6" d="M 412.5,441.5 C 420.367,448.2 427.367,455.7 433.5,464C 431.211,468.644 427.544,470.311 422.5,469C 418.281,466.448 415.114,462.948 413,458.5C 412.501,452.843 412.334,447.176 412.5,441.5 Z"/></g>
<g><path style="opacity:1" fill="#fdfbf9" d="M 408.5,652.5 C 429.908,668.364 453.908,677.864 480.5,681C 477.815,699.906 473.315,718.406 467,736.5C 446.835,732.252 429.169,723.252 414,709.5C 412.855,690.408 411.022,671.408 408.5,652.5 Z"/></g>
<g><path style="opacity:1" fill="#9c9194" d="M 612.5,652.5 C 613.139,653.097 613.472,653.93 613.5,655C 611.573,673.488 609.74,691.988 608,710.5C 599.916,718.796 590.416,724.962 579.5,729C 571.843,732.039 564.01,734.539 556,736.5C 555.5,736.167 555,735.833 554.5,735.5C 548.126,717.67 543.793,699.336 541.5,680.5C 567.825,677.49 591.492,668.156 612.5,652.5 Z"/></g>
<g><path style="opacity:1" fill="#fdfbf9" d="M 546.5,781.5 C 545.881,792.489 545.548,803.489 545.5,814.5C 540.766,816.077 535.766,816.911 530.5,817C 500.245,820.269 470.912,816.602 442.5,806C 433.946,801.898 425.946,797.065 418.5,791.5C 417.542,790.038 416.376,788.705 415,787.5C 414.5,770.837 414.333,754.17 414.5,737.5C 414.337,735.143 414.503,732.81 415,730.5C 428.854,741.343 444.354,748.843 461.5,753C 455.643,764.547 449.643,776.047 443.5,787.5C 456.324,788.51 468.324,785.677 479.5,779C 491.158,772.016 501.658,763.516 511,753.5C 521.272,764.953 533.106,774.286 546.5,781.5 Z"/></g>
<g><path style="opacity:1" fill="#9d9195" d="M 545.5,814.5 C 545.548,803.489 545.881,792.489 546.5,781.5C 556.467,786.995 567.134,789.162 578.5,788C 571.592,777.02 565.592,765.52 560.5,753.5C 560.709,752.914 561.043,752.414 561.5,752C 578.449,748.44 593.616,741.274 607,730.5C 606.692,749.755 606.359,769.088 606,788.5C 588.621,803.605 568.455,812.271 545.5,814.5 Z"/></g>
<g><path style="opacity:1" fill="#04020d" d="M 414.5,737.5 C 414.333,754.17 414.5,770.837 415,787.5C 416.376,788.705 417.542,790.038 418.5,791.5C 416.629,791.141 415.129,790.141 414,788.5C 413.172,771.328 413.338,754.328 414.5,737.5 Z"/></g>
<g><path style="opacity:1" fill="#0c0913" d="M 474.5,832.5 C 475.449,831.848 476.615,831.514 478,831.5C 493.3,832.822 508.467,833.822 523.5,834.5C 507.106,834.924 490.773,834.258 474.5,832.5 Z"/></g>
<g><path style="opacity:1" fill="#9c9094" d="M 609.5,876.5 C 608.566,877.568 608.232,878.901 608.5,880.5C 586.964,880.369 565.797,880.369 545,880.5C 544.823,876.644 544.323,872.977 543.5,869.5C 544.001,857.102 544.668,844.769 545.5,832.5C 567.296,829.259 587.296,821.592 605.5,809.5C 607.403,831.795 608.736,854.128 609.5,876.5 Z"/></g>
<g><path style="opacity:1" fill="#03000d" d="M 407.5,878.5 C 407.5,879.5 407.5,880.5 407.5,881.5C 393.833,881.5 380.167,881.5 366.5,881.5C 366.5,880.5 366.5,879.5 366.5,878.5C 379.587,880.453 392.92,881.12 406.5,880.5C 406.337,878.143 406.503,875.81 407,873.5C 407.494,875.134 407.66,876.801 407.5,878.5 Z"/></g>
<g><path style="opacity:1" fill="#79717a" d="M 543.5,869.5 C 544.323,872.977 544.823,876.644 545,880.5C 565.797,880.369 586.964,880.369 608.5,880.5C 587.006,881.497 565.34,881.831 543.5,881.5C 543.5,879.5 543.5,877.5 543.5,875.5C 543.5,873.5 543.5,871.5 543.5,869.5 Z"/></g>
<g><path style="opacity:1" fill="#fb8700" d="M 787.5,881.5 C 747.833,881.5 708.167,881.5 668.5,881.5C 668.5,879.167 668.5,876.833 668.5,874.5C 669.513,875.659 669.847,877.659 669.5,880.5C 709.004,880.168 748.337,880.501 787.5,881.5 Z"/></g>
<g><path style="opacity:1" fill="#b4adb1" d="M 543.5,875.5 C 543.5,877.5 543.5,879.5 543.5,881.5C 565.34,881.831 587.006,881.497 608.5,880.5C 608.232,878.901 608.566,877.568 609.5,876.5C 609.5,878.167 609.5,879.833 609.5,881.5C 623.833,881.5 638.167,881.5 652.5,881.5C 616.004,882.498 579.337,882.832 542.5,882.5C 542.198,879.941 542.532,877.607 543.5,875.5 Z"/></g>
</svg>
